<?xml version="1.0" standalone="no"?>
<!DOCTYPE svg PUBLIC "-//W3C//DTD SVG 20010904//EN"
 "http://www.w3.org/TR/2001/REC-SVG-20010904/DTD/svg10.dtd">
<svg version="1.0" xmlns="http://www.w3.org/2000/svg"
 width="1280.000000pt" height="1114.000000pt" viewBox="0 0 1280.000000 1114.000000"
 preserveAspectRatio="xMidYMid meet">
<metadata>
Created by potrace 1.15, written by Peter Selinger 2001-2017
</metadata>
<g transform="translate(0.000000,1114.000000) scale(0.100000,-0.100000)"
fill="#000000" stroke="none">
<path d="M5950 11129 c-1742 -89 -3403 -691 -4790 -1735 -432 -325 -952 -799
-1039 -946 -71 -122 -109 -246 -118 -388 -24 -384 227 -730 603 -831 106 -29
297 -31 399 -5 93 24 238 95 302 148 29 24 125 112 215 197 1105 1046 2483
1701 3978 1890 576 73 1224 73 1800 0 1081 -137 2108 -519 3014 -1122 373
-248 663 -480 1006 -806 167 -159 221 -202 317 -250 114 -57 202 -76 353 -76
154 0 214 13 346 76 436 206 593 740 343 1167 -39 66 -278 309 -474 483 -902
800 -1894 1375 -3035 1761 -1009 340 -2132 493 -3220 437z"/>
<path d="M6090 8004 c-176 -11 -350 -27 -460 -40 -1257 -153 -2420 -671 -3390
-1508 -172 -149 -378 -356 -426 -427 -147 -222 -177 -520 -75 -767 162 -393
608 -594 1012 -457 136 46 206 94 369 250 493 471 1055 821 1683 1049 1018
369 2176 369 3194 0 634 -230 1172 -566 1690 -1056 137 -130 204 -178 313
-225 111 -47 221 -67 349 -60 122 6 197 24 298 72 152 71 282 187 362 322 127
215 147 500 51 733 -47 114 -109 196 -257 340 -651 636 -1468 1137 -2335 1435
-492 169 -953 267 -1503 321 -140 14 -751 26 -875 18z"/>
<path d="M6155 4749 c-323 -25 -662 -105 -970 -229 -233 -93 -555 -283 -760
-446 -278 -223 -401 -365 -465 -541 -54 -151 -64 -341 -25 -488 41 -154 150
-321 277 -425 72 -59 213 -131 308 -157 94 -25 321 -25 410 1 155 45 245 100
400 241 225 206 470 333 764 397 85 19 132 22 306 22 174 0 221 -3 306 -22
294 -64 541 -192 763 -397 159 -145 260 -205 415 -245 108 -27 273 -27 382 0
166 42 335 149 444 282 58 71 131 214 155 303 39 147 29 337 -25 488 -51 139
-119 233 -277 379 -406 377 -916 646 -1453 766 -316 71 -638 95 -955 71z"/>
<path d="M6205 1599 c-234 -57 -427 -212 -530 -424 -67 -137 -79 -196 -79
-365 0 -171 12 -229 81 -368 57 -117 176 -248 290 -318 261 -163 605 -163 866
0 114 71 233 201 289 318 71 144 83 199 83 368 0 171 -13 231 -80 365 -82 166
-197 281 -360 360 -173 85 -380 108 -560 64z"/>
</g>
</svg>
